<svg xmlns="http://www.w3.org/2000/svg" width="24" height="24" viewBox="0 0 64 64"><g><path d="M51.77 30.36A1 1 0 0 0 51 30h-1.27l-.86-5.16a1 1 0 0 0-1-.84h-4a1 1 0 0 0-1 .84L42 30h-1a1 1 0 0 0-1 1v15h-2v2h2v6H29.65a6 6 0 0 0-11.3 0h-2.7a6 6 0 0 0-11.3 0H4v-6h32v-2h-6v-3a1 1 0 0 0-1-1h-1v-5a1 1 0 0 0-1-1H17a1 1 0 0 0-1 1v5h-1v-6.69a6 6 0 0 0 .87-2.07l21.75-17.18.05-.06h2.64l.21 1.18a1 1 0 0 0 1 .82h9a1 1 0 0 0 1-.82l2.5-14a1 1 0 0 0-.21-.82A1 1 0 0 0 53 2H39a1 1 0 0 0-.77.36 1 1 0 0 0-.21.82L38.88 8H32a1 1 0 0 0-.62.2L8.76 26.13A6 6 0 0 0 5 35.31v7.4A6 6 0 0 0 4 46H3a1 1 0 0 0-1 1v8a1 1 0 0 0 1 1h1a6 6 0 0 0 12 0h2a6 6 0 0 0 12 0h18a6 6 0 0 0 12 0h1a1 1 0 0 0 1-1V43a1 1 0 0 0-.23-.64zM9 46a1 1 0 0 1 2 0zm1-8a6 6 0 0 0 3-.81v3.62a5.92 5.92 0 0 0-3-.81 6 6 0 0 0-3 .82v-3.63a6 6 0 0 0 3 .81zm12.76-14.94h2.75l-3.37 2.66zm-3 4.23H15.4l1-4.24h4.36zm3.49-6.23 1-4.24h4.36l-1 4.24zm7.39-4.2h2.74L30 19.54zm.46-2 1-4.24 3.37 4.26zm-2.05 0h-2.78l3.37-2.66zm-7.85 6.2h-2.77l3.36-2.66zm-7.8 6a5.7 5.7 0 0 0-1.57-.76l2.14-1.69zm4.29 2.24-1.84 1.4a5.64 5.64 0 0 0-.52-1.44zM16 46a6 6 0 0 0-.34-2H28v2zm2-8h8v4h-8zM40.91 8h10.18l-.71 4h-8.76zm1.43 8L42 14h8l-.36 2zm9.47-12-.36 2h-10.9l-.36-2zM40 14h-2.74l-3.16-4h5.13zM10 28a4 4 0 1 1-4 4 4 4 0 0 1 4-4zM6.8 43.6a4 4 0 0 1 6-.43 3.09 3.09 0 0 1 .37.43A4 4 0 0 1 14 46h-1a3 3 0 0 0-6 0H6a4 4 0 0 1 .8-2.4zM10 60a4 4 0 1 1 4-4 4 4 0 0 1-4 4zm14 0a4 4 0 1 1 4-4 4 4 0 0 1-4 4zm36-11a1 1 0 0 1-1-1v-2a1 1 0 0 1 1-1zM44.73 26H47l.67 4h-3.61zM54 60a4 4 0 1 1 4-4 4 4 0 0 1-4 4zm6-6h-.35a6 6 0 0 0-11.3 0H42V32h8.53l9.19 11A3 3 0 0 0 57 46v2a3 3 0 0 0 3 3z"  ></path><path d="M49.8 34.4a1 1 0 0 0-.8-.4h-4a1 1 0 0 0-1 1v12a1 1 0 0 0 1 1h10a1 1 0 0 0 1-1v-4a1 1 0 0 0-.2-.6zM54 46h-8V36h2.5l5.5 7.33zM9 55h2v2H9zM23 55h2v2h-2zM53 55h2v2h-2zM44.88 19h2v3h-2zM40.04 21.591l1.415-1.414 2.12 2.121-1.413 1.414zM48.162 22.298l2.12-2.121 1.415 1.414-2.121 2.12zM10 35a3 3 0 1 0-3-3 3 3 0 0 0 3 3zm0-4a1 1 0 1 1-1 1 1 1 0 0 1 1-1z"  ></path></g></svg>