<svg xmlns="http://www.w3.org/2000/svg" width="24" height="24" viewBox="0 0 512 512"><g><path d="m312.1 227.522.034 7.774-24.687.108 4.112-7.791zm-212.046 97.431a22.408 22.408 0 1 0 22.408 22.407 22.433 22.433 0 0 0-22.408-22.407zm295.68 1a22.408 22.408 0 1 0 22.407 22.407 22.433 22.433 0 0 0-22.407-22.407zm-72.942-166.994-3.907-7.9-14.371 20.074 6.32 4.524zm31.955 42.333 9.668 18.123h8.811l-11.62-21.782zM179.172 354.613h162.647l.007-6.253a53.908 53.908 0 0 1 107.815 0q0 2.4-.007 4.75v1.5h48.861v-63.269H179.172zm157.522-179.1a3 3 0 0 1-1.512 1.728l-.494.244 11.193 5.853 2.14-12.449-.494.245a3 3 0 0 1-4.019-1.36l-10.663-21.553-8.663.02 12.358 24.979a3 3 0 0 1 .154 2.291zm5.843 46.9v-.552l-10.208 7.439 10.208 7.437v-.551a3 3 0 0 1 3-3h24.047l3.823-7.773h-27.87a3 3 0 0 1-3-2.998zM55.342 147.039h112.873v145.909h-68.161a54.474 54.474 0 0 0-54.412 54.411c0 1.552-.032 3.845-.064 5.752l-17.513-2.772v-34.822a3 3 0 0 0-3-3h-11.6v-3.064h11.6a3 3 0 0 0 3-3v-22.089a3 3 0 0 0-3-3h-11.6v-30.728L31 166.818a24.981 24.981 0 0 1 24.342-19.779zm67.121 80.471a8.925 8.925 0 0 0 8.9 8.909c7.138.012 14.027.021 20.712.025h.006a8.928 8.928 0 0 0 8.9-8.842l.468-62.695a8.908 8.908 0 0 0-8.909-8.976h-21.168a8.92 8.92 0 0 0-8.909 8.909zm-63.087-71.579A21.265 21.265 0 0 0 38.487 172.7l-15.442 69.7a11.434 11.434 0 0 0 11.179 13.9h.3a340.342 340.342 0 0 0 27.937-1.835c4.8-.518 10.495-4.74 16.939-12.547a14.3 14.3 0 0 1 10.852-5.529q9.718 0 18.825.012h.012a8.646 8.646 0 0 0 8.643-8.652v-63.167a8.661 8.661 0 0 0-8.651-8.651zM13.461 345.023a3.5 3.5 0 0 0 2.966 3.474l5.638.892v-30.872h-8.6zM28.9 243.693a5.436 5.436 0 0 0 5.468 6.595c9.3-.233 18.532-.84 27.442-1.8 3.05-.33 7.773-4.121 12.957-10.4a20.261 20.261 0 0 1 15.479-7.709q9.721 0 18.832.012a2.644 2.644 0 0 0 2.644-2.652v-63.157a2.654 2.654 0 0 0-2.651-2.651h-49.7A15.3 15.3 0 0 0 44.344 174zm125.567 103.666c0 1.7-.015 4.257-.03 6.254h13.778v-54.665h-43.371a54.455 54.455 0 0 1 29.623 48.411zm344.072-83.031v17.013H179.216l-.088-161.609h271.829zm-101.6-62.345a70.706 70.706 0 1 0-70.7 70.706 70.785 70.785 0 0 0 70.701-70.706zm-97.823 4.881.488.258-1.813-12.5-11.343 5.557.488.257a3 3 0 0 1 1.253 4.053l-11.225 21.266 5.09 7.01 13.009-24.648a3 3 0 0 1 4.054-1.253zm-167.742 23.555c7.136.012 14.023.021 20.706.025a2.913 2.913 0 0 0 2.9-2.886l.468-62.7a2.911 2.911 0 0 0-2.909-2.931h-21.167a2.911 2.911 0 0 0-2.909 2.909v62.67a2.916 2.916 0 0 0 2.911 2.913zM22.065 287.364h-8.6v16.089h8.6zm368.875-85.381a64.706 64.706 0 1 1-64.7-64.705 64.779 64.779 0 0 1 64.7 64.705zm-92.358-27.714 11.2 8.017a3 3 0 0 0 1.746.561 3.114 3.114 0 0 0 .49-.04 3 3 0 0 0 1.949-1.214l11.841-16.539 4.025 8.137-3.091 1.529a3 3 0 0 0-.059 5.347l20.068 10.494a3 3 0 0 0 4.347-2.151l3.837-22.319a3 3 0 0 0-4.287-3.2l-3.092 1.529-10.161-20.538a3 3 0 0 0-2.689-1.67h-.006l-15.348.036a2.987 2.987 0 0 0-2.417 1.265l-19.044 26.567a3 3 0 0 0 .691 4.189zm19.565 64-.061-13.773a3 3 0 0 0-3-2.986h-.013l-20.34.089 4.237-8.028 3.05 1.61a3 3 0 0 0 4.369-3.084l-3.25-22.411a3 3 0 0 0-4.288-2.264l-20.338 9.963a3 3 0 0 0-.081 5.347l3.051 1.61-10.7 20.264a3 3 0 0 0 .226 3.164l9.019 12.418a3 3 0 0 0 2.428 1.238l32.7-.144a3 3 0 0 0 2.988-3.013zm62.709-17.258-15.368-28.849a3 3 0 0 0-4.059-1.234l-12.152 6.482a3 3 0 0 0-1.235 4.059l9.573 17.946h-9.078v-3.449a3 3 0 0 0-4.766-2.425l-18.3 13.336a3 3 0 0 0 0 4.85l18.3 13.335a3 3 0 0 0 4.766-2.425v-3.449h22.915a3 3 0 0 0 2.693-1.675l6.773-13.774a2.988 2.988 0 0 0-.062-2.728zm58.785 127.349a43.908 43.908 0 1 1-43.908-43.907 43.958 43.958 0 0 1 43.908 43.907zm-15.5 0a28.408 28.408 0 1 0-28.407 28.408 28.439 28.439 0 0 0 28.407-28.408zm-280.178-1a43.908 43.908 0 1 1-43.909-43.907 43.959 43.959 0 0 1 43.909 43.907zm-15.5 0a28.408 28.408 0 1 0-28.408 28.408 28.439 28.439 0 0 0 28.407-28.408z"></path></g></svg>