<svg xmlns="http://www.w3.org/2000/svg" width="24" height="24" viewBox="0 0 60 60"><g transform="matrix(1.3899999999999992,0,0,1.3899999999999992,-11.699999256134024,-11.699999628067019)"><path d="M19.136 35.465c-2.428 0-4.398 1.97-4.398 4.397s1.97 4.406 4.398 4.406 4.406-1.978 4.406-4.406-1.978-4.397-4.406-4.397zM47.624 39.862a4.4 4.4 0 0 0-4.398-4.397c-2.428 0-4.406 1.97-4.406 4.397s1.978 4.406 4.406 4.406a4.406 4.406 0 0 0 4.398-4.406z"   ></path><path d="M44.068 19.075a.84.84 0 0 0-.572-.237h-7.25v-2.289a.82.82 0 0 0-.818-.817H15.744a.798.798 0 0 0-.572.245l-5.37 5.362a.844.844 0 0 0-.238.58v7.071c0 .221.09.426.237.58l3.45 3.45h-2.87a.815.815 0 0 0-.817.818v4.512c0 .45.36.818.817.818h2.763c.344-3 2.902-5.338 5.992-5.338s5.657 2.338 6 5.338h12.09c.344-3 2.91-5.338 6-5.338a6.04 6.04 0 0 1 5.992 5.338h.392a.815.815 0 0 0 .818-.818v-4.496l.008-.008v-8.068a.831.831 0 0 0-.245-.58zM18.238 27.6a.82.82 0 0 1-.818.817.82.82 0 0 1-.818-.817v-4.807a.82.82 0 0 1 .818-.817.82.82 0 0 1 .817.817zm4.822 0c0 .45-.368.817-.818.817s-.817-.368-.817-.817v-4.807c0-.45.368-.817.817-.817s.818.368.818.817zm4.823 0a.82.82 0 0 1-.818.817.815.815 0 0 1-.817-.817v-4.807c0-.45.36-.817.817-.817a.82.82 0 0 1 .818.817zM48.8 28.737h-8.346v-8.264h2.698L48.8 26.12z"   ></path></g></svg>