<svg xmlns="http://www.w3.org/2000/svg" width="24" height="24" viewBox="0 0 140 140"><g><path d="M101.383 54.756 57.24 76.504 51.308 62.84l46.03-17.402a2.483 2.483 0 0 1 3.155 1.334l2.07 4.768a2.483 2.483 0 0 1-1.18 3.216z" ></path><path  d="m52.365 65.274 45.693-18.176c1.23-.489 2.464-.259 2.804.523l-.37-.85a2.483 2.483 0 0 0-3.155-1.333L51.308 62.84l2.966 6.832z" ></path><path  d="m102.563 51.54-.369-.85c.34.783-.335 1.841-1.532 2.406L56.183 74.069l1.057 2.435 44.143-21.748a2.483 2.483 0 0 0 1.18-3.216z" ></path><path d="M57.24 77.504a.999.999 0 0 1-.917-.602L50.391 63.24a.999.999 0 0 1 .564-1.334l46.03-17.402a3.48 3.48 0 0 1 4.425 1.87l2.07 4.769a3.48 3.48 0 0 1-1.655 4.511L57.682 77.401c-.14.068-.29.103-.442.103zm-4.597-14.1 5.096 11.739 43.201-21.284h.001c.71-.35 1.02-1.194.705-1.92l-2.07-4.769a1.481 1.481 0 0 0-1.885-.796z" ></path><path  d="m100.711 47.374 21.912-9.51 1.557 3.587-21.912 9.51z" ></path><path d="M102.306 51.95a1 1 0 0 1-.917-.602l-1.557-3.588a1 1 0 0 1 .518-1.315l21.92-9.517a1 1 0 0 1 1.315.519l1.557 3.588a1 1 0 0 1-.518 1.316l-21.92 9.516a1.008 1.008 0 0 1-.398.083zm-.242-4.069.762 1.754 20.084-8.72-.762-1.754z" ></path><circle cx="126.293" cy="38.404" r="7.448" ></circle><path d="M126.295 46.856a8.443 8.443 0 0 1-3.102-.594 8.39 8.39 0 0 1-4.648-4.494c-.9-2.07-.939-4.365-.11-6.465s2.424-3.75 4.494-4.648a8.394 8.394 0 0 1 6.464-.11 8.39 8.39 0 0 1 4.649 4.494c.9 2.07.938 4.366.11 6.465a8.394 8.394 0 0 1-4.494 4.65 8.437 8.437 0 0 1-3.363.702zm-.003-14.904c-.872 0-1.743.18-2.567.537-1.58.686-2.798 1.946-3.43 3.548s-.602 3.355.084 4.934a6.407 6.407 0 0 0 3.548 3.431 6.41 6.41 0 0 0 4.934-.084 6.402 6.402 0 0 0 3.43-3.548 6.403 6.403 0 0 0-.083-4.934 6.405 6.405 0 0 0-3.548-3.43 6.44 6.44 0 0 0-2.368-.454z" ></path><circle cx="126.293" cy="38.404" r="3.103"  ></circle><path d="M126.3 42.507a4.11 4.11 0 0 1-3.77-2.469c-.436-1.006-.456-2.12-.054-3.14s1.178-1.822 2.183-2.258a4.109 4.109 0 0 1 5.397 2.13c.437 1.005.457 2.12.054 3.14s-1.178 1.821-2.182 2.258a4.09 4.09 0 0 1-1.628.34zm-.007-6.207c-.284 0-.569.058-.837.175-.516.223-.913.635-1.12 1.157s-.196 1.094.028 1.61a2.105 2.105 0 0 0 3.886-.066 2.09 2.09 0 0 0-.027-1.61 2.103 2.103 0 0 0-1.93-1.267z" ></path><path  d="M95.819 82.36H19.211C11.915 82.36 6 88.275 6 95.57v.268c0 7.296 5.915 13.21 13.21 13.21H95.82c7.296 0 13.21-5.914 13.21-13.21v-.267c0-7.296-5.914-13.211-13.21-13.211z" ></path><path d="M95.82 110.049H19.21c-7.835 0-14.21-6.375-14.21-14.211v-.267c0-7.836 6.375-14.21 14.21-14.21h76.61c7.835 0 14.21 6.374 14.21 14.21v.267c0 7.836-6.375 14.21-14.21 14.21zM19.21 83.36C12.478 83.36 7 88.838 7 95.57v.268c0 6.733 5.477 12.21 12.21 12.21h76.61c6.733 0 12.21-5.477 12.21-12.21v-.267c0-6.733-5.477-12.21-12.21-12.21z" ></path><path d="M95.686 73.464H21.693a2.483 2.483 0 0 0-2.482 2.482v6.414h78.957v-6.414a2.483 2.483 0 0 0-2.482-2.482z" ></path><path  d="M61.793 73.464H22.314v-33.88h27.065z"  ></path><path d="M61.793 74.464H22.314a1 1 0 0 1-1-1v-33.88a1 1 0 0 1 1-1H49.38c.42 0 .795.263.938.656l12.413 33.88a1 1 0 0 1-.938 1.344zm-38.479-2h37.047l-11.68-31.88H23.314z" ></path><path d="M52.95 67.201H28.06v-21.36h17.06z"  ></path><path d="M50.776 31.759H21.848a3.724 3.724 0 0 0-3.724 3.724v.378a3.724 3.724 0 0 0 3.724 3.724h28.928A3.724 3.724 0 0 0 54.5 35.86v-.378a3.724 3.724 0 0 0-3.724-3.724z" ></path><path d="M126.293 71.412a1 1 0 0 1-1-1v-24.56a1 1 0 1 1 2 0v24.56a1 1 0 0 1-1 1z" ></path><path d="m134 79.36-7.707 7.448-7.706-7.448 2.482-7.965h10.448z" ></path><path d="M126.293 87.808a1 1 0 0 1-.696-.28l-7.706-7.449a1 1 0 0 1-.26-1.016l2.483-7.966c.131-.418.518-.702.955-.702h10.448c.438 0 .825.284.956.702l2.482 7.966a1 1 0 0 1-.26 1.016l-7.707 7.448a1 1 0 0 1-.695.28zm-6.569-8.739 6.569 6.348 6.57-6.348-2.08-6.674h-8.978z" ></path><path d="M126.286 105.185c-.492 0-.988-.056-1.482-.168a6.306 6.306 0 0 1-4.72-4.72c-.444-1.943 0-3.935 1.219-5.464a6.35 6.35 0 0 1 3.99-2.327v-5.698a1 1 0 1 1 2 0v6.62a1 1 0 0 1-1 1 4.36 4.36 0 0 0-3.426 1.652c-.837 1.05-1.14 2.425-.833 3.772.357 1.566 1.65 2.857 3.215 3.215 1.35.307 2.723.004 3.772-.834a4.36 4.36 0 0 0 1.652-3.426 1 1 0 1 1 2 0 6.35 6.35 0 0 1-2.405 4.99 6.367 6.367 0 0 1-3.982 1.388z" ></path><circle cx="44.518" cy="95.704" r="12.801"  ></circle><circle cx="44.518" cy="95.704" r="6.056"  ></circle><path d="M51.205 84.804a12.752 12.752 0 0 1 3.98 9.261c0 7.07-5.731 12.801-12.8 12.801a12.72 12.72 0 0 1-6.688-1.9 12.745 12.745 0 0 0 8.82 3.539c7.07 0 12.801-5.731 12.801-12.8 0-4.616-2.45-8.648-6.113-10.9z"  ></path><path d="M44.517 109.505c-7.609 0-13.8-6.191-13.8-13.8 0-7.61 6.191-13.801 13.8-13.801s13.801 6.19 13.801 13.8-6.191 13.8-13.8 13.8zm0-25.601c-6.506 0-11.8 5.293-11.8 11.8s5.294 11.8 11.8 11.8 11.801-5.293 11.801-11.8-5.294-11.8-11.8-11.8z" ></path><path  d="M36.273 92.99a.92.92 0 0 1-.905-1.091c.761-4.033 4.253-5.42 5.993-5.589a.913.913 0 0 1 1.006.827.92.92 0 0 1-.823 1.005c-.15.016-3.675.434-4.367 4.099a.92.92 0 0 1-.904.75z"  ></path><path  d="M40.022 98.08a6.056 6.056 0 0 1 6.056-6.057c1.601 0 3.053.626 4.136 1.641a6.053 6.053 0 0 0-11.752 2.04c0 1.743.74 3.31 1.92 4.415a6.032 6.032 0 0 1-.36-2.04z"  ></path><path d="M44.517 102.76c-3.89 0-7.055-3.165-7.055-7.056s3.165-7.056 7.055-7.056 7.057 3.166 7.057 7.056-3.166 7.056-7.057 7.056zm0-12.112c-2.788 0-5.055 2.268-5.055 5.056s2.267 5.056 5.055 5.056 5.057-2.268 5.057-5.056-2.268-5.056-5.057-5.056z" ></path><circle cx="18.917" cy="95.704" r="12.801"  ></circle><circle cx="18.917" cy="95.704" r="6.056"  ></circle><path d="M25.604 84.804a12.752 12.752 0 0 1 3.98 9.261c0 7.07-5.731 12.801-12.8 12.801a12.72 12.72 0 0 1-6.688-1.9 12.745 12.745 0 0 0 8.82 3.539c7.07 0 12.801-5.731 12.801-12.8 0-4.616-2.45-8.648-6.113-10.9z"  ></path><path d="M18.917 109.505c-7.61 0-13.8-6.191-13.8-13.8 0-7.61 6.19-13.801 13.8-13.801s13.8 6.19 13.8 13.8-6.19 13.8-13.8 13.8zm0-25.601c-6.507 0-11.8 5.293-11.8 11.8s5.293 11.8 11.8 11.8 11.8-5.293 11.8-11.8-5.293-11.8-11.8-11.8z" ></path><path  d="M10.672 92.99a.92.92 0 0 1-.905-1.091c.761-4.033 4.253-5.42 5.993-5.589a.913.913 0 0 1 1.006.827.92.92 0 0 1-.823 1.005c-.15.016-3.675.434-4.367 4.099a.92.92 0 0 1-.904.75z"  ></path><path  d="M14.42 98.08a6.056 6.056 0 0 1 6.057-6.057c1.601 0 3.053.626 4.136 1.641a6.053 6.053 0 0 0-11.752 2.04c0 1.743.74 3.31 1.92 4.415a6.032 6.032 0 0 1-.36-2.04z"  ></path><path d="M18.917 102.76c-3.89 0-7.057-3.165-7.057-7.056s3.166-7.056 7.057-7.056 7.055 3.166 7.055 7.056-3.165 7.056-7.055 7.056zm0-12.112c-2.788 0-5.057 2.268-5.057 5.056s2.269 5.056 5.057 5.056 5.055-2.268 5.055-5.056-2.267-5.056-5.055-5.056z" ></path><circle cx="70.315" cy="95.704" r="12.801"  ></circle><circle cx="70.315" cy="95.704" r="6.056"  ></circle><path d="M77.003 84.804a12.752 12.752 0 0 1 3.98 9.261c0 7.07-5.732 12.801-12.801 12.801a12.72 12.72 0 0 1-6.687-1.9 12.745 12.745 0 0 0 8.82 3.539c7.07 0 12.8-5.731 12.8-12.8 0-4.616-2.45-8.648-6.112-10.9z"  ></path><path d="M70.315 109.505c-7.61 0-13.8-6.191-13.8-13.8 0-7.61 6.19-13.801 13.8-13.801s13.801 6.19 13.801 13.8-6.191 13.8-13.8 13.8zm0-25.601c-6.507 0-11.8 5.293-11.8 11.8s5.293 11.8 11.8 11.8 11.801-5.293 11.801-11.8-5.294-11.8-11.8-11.8z" ></path><path  d="M62.07 92.99a.92.92 0 0 1-.905-1.091c.762-4.033 4.254-5.42 5.994-5.589a.913.913 0 0 1 1.006.827.92.92 0 0 1-.823 1.005c-.15.016-3.676.434-4.368 4.099a.92.92 0 0 1-.903.75z"  ></path><path  d="M65.82 98.08a6.056 6.056 0 0 1 6.055-6.057c1.602 0 3.054.626 4.137 1.641a6.053 6.053 0 0 0-11.753 2.04c0 1.743.74 3.31 1.92 4.415a6.032 6.032 0 0 1-.36-2.04z"  ></path><path d="M70.315 102.76c-3.89 0-7.055-3.165-7.055-7.056s3.165-7.056 7.055-7.056 7.057 3.166 7.057 7.056-3.166 7.056-7.057 7.056zm0-12.112c-2.788 0-5.055 2.268-5.055 5.056s2.267 5.056 5.055 5.056 5.057-2.268 5.057-5.056-2.269-5.056-5.057-5.056z" ></path><circle cx="96.113" cy="95.704" r="12.801"  ></circle><circle cx="96.113" cy="95.704" r="6.056"  ></circle><path d="M102.8 84.804a12.752 12.752 0 0 1 3.98 9.261c0 7.07-5.731 12.801-12.8 12.801a12.72 12.72 0 0 1-6.688-1.9 12.745 12.745 0 0 0 8.82 3.539c7.07 0 12.801-5.731 12.801-12.8 0-4.616-2.45-8.648-6.113-10.9z"  ></path><path d="M96.113 109.505c-7.61 0-13.8-6.191-13.8-13.8 0-7.61 6.19-13.801 13.8-13.801s13.8 6.19 13.8 13.8-6.19 13.8-13.8 13.8zm0-25.601c-6.507 0-11.8 5.293-11.8 11.8s5.293 11.8 11.8 11.8 11.8-5.293 11.8-11.8-5.293-11.8-11.8-11.8z" ></path><path  d="M87.868 92.99a.92.92 0 0 1-.905-1.091c.761-4.033 4.253-5.42 5.993-5.589a.913.913 0 0 1 1.006.827.92.92 0 0 1-.823 1.005c-.15.016-3.675.434-4.367 4.099a.92.92 0 0 1-.904.75z"  ></path><path  d="M91.617 98.08a6.056 6.056 0 0 1 6.056-6.057c1.601 0 3.053.626 4.136 1.641a6.053 6.053 0 0 0-11.752 2.04c0 1.743.74 3.31 1.92 4.415a6.032 6.032 0 0 1-.36-2.04z"  ></path><path d="M96.113 102.76c-3.89 0-7.057-3.165-7.057-7.056s3.166-7.056 7.057-7.056 7.056 3.166 7.056 7.056-3.165 7.056-7.056 7.056zm0-12.112c-2.788 0-5.057 2.268-5.057 5.056s2.269 5.056 5.057 5.056 5.056-2.268 5.056-5.056-2.268-5.056-5.056-5.056z" ></path><path  d="M19.211 81.156h78.958v1.204H19.211z" ></path><path  d="M95.686 73.464H21.693a2.483 2.483 0 0 0-2.482 2.482v.532c0-1 1.111-1.81 2.482-1.81h73.993c1.37 0 2.482.81 2.482 1.81v-.532a2.483 2.483 0 0 0-2.482-2.482z" ></path><path d="M98.168 83.36H19.21a1 1 0 0 1-1-1v-6.413a3.487 3.487 0 0 1 3.482-3.483h73.992a3.487 3.487 0 0 1 3.483 3.483v6.413a1 1 0 0 1-1 1zm-77.957-2h76.957v-5.413c0-.818-.665-1.483-1.483-1.483H21.693c-.817 0-1.482.665-1.482 1.483z" ></path><path d="M42.22 67.201h-6.74l-6.45-21.36h6.74zM47.06 67.201h-3.59l-6.45-21.36h3.59z"  ></path><path d="M52.95 68.201H28.06a1 1 0 0 1-1-1v-21.36a1 1 0 0 1 1-1h17.06c.42 0 .795.262.938.656l7.83 21.36a.998.998 0 0 1-.938 1.344zm-23.89-2h22.458l-7.096-19.36H29.06z" ></path><path  d="M50.776 37.687H21.848c-2.056 0-3.724-.859-3.724-1.918v.092a3.724 3.724 0 0 0 3.724 3.724h28.928A3.724 3.724 0 0 0 54.5 35.86v-.092c0 1.06-1.667 1.918-3.724 1.918z" ></path><path  d="M50.776 31.759H21.848a3.724 3.724 0 0 0-3.724 3.724v.092c0-1.06 1.668-1.918 3.724-1.918h28.928c2.057 0 3.724.859 3.724 1.918v-.092a3.724 3.724 0 0 0-3.724-3.724z" ></path><path d="M50.776 40.585H21.848a4.73 4.73 0 0 1-4.723-4.724v-.378a4.73 4.73 0 0 1 4.723-4.724h28.928a4.73 4.73 0 0 1 4.724 4.724v.378a4.73 4.73 0 0 1-4.724 4.724zm-28.928-7.826a2.727 2.727 0 0 0-2.723 2.724v.378a2.727 2.727 0 0 0 2.723 2.724h28.928A2.727 2.727 0 0 0 53.5 35.86v-.378a2.727 2.727 0 0 0-2.724-2.724z" ></path></g></svg>