<svg xmlns="http://www.w3.org/2000/svg" width="24" height="24" viewBox="0 0 512 512"><g><path d="M118.252 251.889v-65.111a3.891 3.891 0 0 1 3.886-3.885h13.667a3.89 3.89 0 0 1 3.886 3.885v65.111a3.89 3.89 0 0 1-3.886 3.885h-13.667a3.891 3.891 0 0 1-3.886-3.885zm-85.18 16.344h22.95a4.682 4.682 0 0 0 3.362-1.433l7.429-7.746a10.712 10.712 0 0 1 7.692-3.28H95.2a4.664 4.664 0 0 0 4.659-4.659v-63.564a4.663 4.663 0 0 0-4.659-4.658H44.234a13.389 13.389 0 0 0-12.843 9.649l-2.974 70.838a4.658 4.658 0 0 0 4.655 4.853zM135.2 380.332c0 1.678.009 3.344.018 4.984q0 .868.009 1.723h17.338V329.69h-48.651a56.706 56.706 0 0 1 31.286 50.642zm298.685-23.655a23.656 23.656 0 1 0 23.655 23.656 23.682 23.682 0 0 0-23.658-23.656zm-419.671-3.152v24.356a3.819 3.819 0 0 0 3.237 3.79l4.466.718c0-.683-.005-1.371-.005-2.057a56.292 56.292 0 0 1 6.757-26.807zm10.676-183.5h127.672V323.69H78.554a56.585 56.585 0 0 0-46.114 23.835H14.214v-7.109h6.465a3 3 0 0 0 3-3v-25.152a3 3 0 0 0-3-3h-6.465v-30.673l4.029-102.179a6.633 6.633 0 0 1 6.647-6.39zm87.362 81.867a9.9 9.9 0 0 0 9.886 9.885h13.667a9.9 9.9 0 0 0 9.886-9.885v-65.114a9.9 9.9 0 0 0-9.886-9.885h-13.667a9.9 9.9 0 0 0-9.886 9.885zm-86.841-59.946-2.989 71.182a10.658 10.658 0 0 0 10.65 11.105h22.95a10.708 10.708 0 0 0 7.692-3.28l7.43-7.746a4.682 4.682 0 0 1 3.361-1.433H95.2a10.67 10.67 0 0 0 10.659-10.659v-63.564A10.67 10.67 0 0 0 95.2 176.893H44.234A19.4 19.4 0 0 0 25.508 191.3a3.048 3.048 0 0 0-.097.646zm-7.732 123.318h-3.465v19.152h3.465zM171 170.022h-8.143v126.25H171zm246.114 118.46H345.89v7.79h71.224zm-254.438 13.79v10.959h335.11v-10.959zM28.971 160.493h123.591V85.751C77.893 92.207 37.4 116.689 28.971 160.493zm49.584 196.184a23.656 23.656 0 1 0 23.655 23.656 23.683 23.683 0 0 0-23.655-23.656zm259.64 0a23.656 23.656 0 1 0 23.656 23.656 23.682 23.682 0 0 0-23.651-23.656zm-213.724 23.655a45.917 45.917 0 1 1-45.917-45.916 45.969 45.969 0 0 1 45.917 45.916zm-16.261 0a29.656 29.656 0 1 0-29.655 29.655 29.689 29.689 0 0 0 29.655-29.654zm149.464-55.917h-84.708a10.3 10.3 0 0 0-10.29 10.29v47.188a10.3 10.3 0 0 0 10.29 10.29h84.708a10.3 10.3 0 0 0 10.29-10.29v-47.187a10.3 10.3 0 0 0-10.29-10.29zM479.8 380.332a45.917 45.917 0 1 1-45.918-45.916 45.97 45.97 0 0 1 45.918 45.916zm-16.262 0a29.655 29.655 0 1 0-29.655 29.655 29.689 29.689 0 0 0 29.654-29.654zm23.319-29.693c-3.873-15.321-18.78-26.021-36.253-26.021H323.563c-15.843 0-29.963 9.044-35.137 22.5l-15.294 39.788a3 3 0 1 0 5.6 2.152l15.294-39.788c4.29-11.159 16.16-18.657 29.537-18.657H450.6c14.488 0 27.289 9.038 30.436 21.491l9.253 36.614a3 3 0 0 0 5.818-1.471zm-102.745 29.693a45.917 45.917 0 1 1-45.918-45.916 45.969 45.969 0 0 1 45.918 45.916zm-16.261 0a29.656 29.656 0 1 0-29.651 29.656 29.689 29.689 0 0 0 29.651-29.655z"></path></g></svg>