<svg xmlns="http://www.w3.org/2000/svg" width="24" height="24" viewBox="0 0 355.529 355.53"><g><path d="M253.993 197.614c-27.017 0-48.909 21.887-48.909 48.904 0 27.02 21.895 48.903 48.909 48.903 27.025 0 48.912-21.884 48.912-48.903s-21.886-48.904-48.912-48.904zm0 70.166c-11.744 0-21.259-9.518-21.259-21.262 0-11.75 9.515-21.261 21.259-21.261s21.268 9.511 21.268 21.261c0 11.744-9.524 21.262-21.268 21.262zM99.53 197.614c-27.017 0-48.91 21.887-48.91 48.904 0 27.02 21.894 48.903 48.91 48.903 27.023 0 48.912-21.884 48.912-48.903s-21.889-48.904-48.912-48.904zm0 70.166c-11.745 0-21.26-9.518-21.26-21.262 0-11.75 9.515-21.261 21.26-21.261 11.743 0 21.267 9.511 21.267 21.261 0 11.744-9.524 21.262-21.267 21.262z"></path><path d="M309.847 139.477c-15.206-3.954-23.909-6.438-29.882-17.972l-19.968-40.429c-5.974-11.532-21.484-20.968-34.474-20.968H187.1s-5.575.068-12.392.068h-23.287c-6.815 0-12.391 5.576-12.391 12.392v58.988c-2.468 4.99-7.603 8.453-13.52 8.453l-114.012-.026C4.684 139.983 0 145.438 0 152.254v84.377c0 6.311 4.784 11.55 10.903 12.292v.1h34.821a54.777 54.777 0 0 1-.063-2.505c0-29.7 24.164-53.861 53.866-53.861 29.703 0 53.868 24.161 53.868 53.861 0 .84-.025 1.674-.063 2.505h42.1c1.346 0 2.66-.125 3.942-.341-.026-.721-.054-1.439-.054-2.165 0-29.798 24.244-54.04 54.045-54.04 5.643 0 11.085.872 16.202 2.482 22.131 6.699 38.292 27.272 38.292 51.559 0 .84-.025 1.674-.063 2.505h24.117c12.989 0 23.616-10.626 23.616-23.614v-44.867c.003-37.784-33.057-37.784-45.682-41.065zm-122.745-2.103V76.526h30.029c11.557 0 25.358 8.396 30.675 18.657l17.767 35.973c1.301 2.512 2.749 4.535 4.39 6.219l-82.861-.001z"></path></g></svg>