<svg xmlns="http://www.w3.org/2000/svg" width="24" height="24" viewBox="0 0 299.312 202.841"><g><path d="M81.634 62.675v-9.687h9.842v12.069l3 .726V52.988h14.31v14.31h-8.048l12.397 3h12.96v3.136l3 .726v-3.862h14.311v7.325l3 .726v-8.051h12.533l1.777 9.036v2.478l13.353 3.231-9.761-49.647c-2.855-14.519-14.617-25.471-28.905-27.627a34.606 34.606 0 0 0-3.951-.368V2.365A2.365 2.365 0 0 0 129.087 0h-37.2a2.365 2.365 0 0 0-2.365 2.365v5.01H83c-7.369 0-13.365 5.996-13.365 13.365v39.032zm0-41.936c0-.753.612-1.365 1.365-1.365h8.477v13.304h-9.842zm12.842-1.365h14.31v13.304h-14.31zm17.309 0h14.31v13.304h-14.31zm34.621 6.796a22.696 22.696 0 0 1 4.487 6.508h-4.487zm-3 6.508h-14.311V19.374h1.144c4.86 0 9.42 1.563 13.167 4.236zm-17.311 3v14.31h-14.31v-14.31zm3 0h14.311v14.31h-14.311zm17.311 0h5.625c.196.665.366 1.342.501 2.033l2.414 12.277h-8.54zm-64.772 14.31v-14.31h9.842v14.31zm12.842 0v-14.31h14.31v14.31zm17.309 17.31v-14.31h14.31v14.31zm17.31 0v-14.31h14.311v14.31zm17.311 0v-14.31h9.13l2.813 14.31zM191.794 93.258 59.43 61.228l10.164 22.087.04.01v.078l4.849 10.537 7.151 1.802v-8.133h5.702l4.139 1.002v9.611l3 .756v-9.641l14.31 3.463v9.119h-2.641l11.905 3h8.045v2.027l3 .756v-2.783h14.311v6.389l3 .756v-7.145h12.463l1.847.447v10.304l3 .756v-10.334l2.374.574 2.143 10.898 12.868 3.243-2.169-11.033 8.377 2.027c2.687.65 5.088 2.01 7.003 3.894a15.052 15.052 0 0 1 3.02 4.214l17.841 37.142v22.146c0 9.836 6.666 17.81 14.888 17.81h58.111l11.142-12.87-65.736-32.587a33.538 33.538 0 0 0-.991-2.306l-14.19-29.541-3.869-8.055c-4.454-9.27-12.74-15.973-22.733-18.39zm7.612 9.638a4.217 4.217 0 1 1 0 8.434 4.217 4.217 0 0 1 0-8.434zm-87.621-.978v-8.393l14.31 3.463v4.931h-14.31zm17.31 0v-4.205l14.311 3.463v.742zm17.311 0v-.016l.065.016zm73.603 53.209a4.217 4.217 0 1 1 8.434 0 4.217 4.217 0 0 1-8.434 0z"   ></path><path d="m4.86 113.002 2.971 33.51 23.484 32.092h11.028a32.12 32.12 0 0 1-.114-2.589c0-17.547 14.276-31.822 31.824-31.822 17.546 0 31.82 14.275 31.82 31.822 0 .872-.045 1.734-.114 2.589h41.76a32.12 32.12 0 0 1-.114-2.589c0-17.547 14.276-31.822 31.825-31.822 4.872 0 9.49 1.104 13.621 3.07v-11.108c0-4.97-3.377-9.303-8.196-10.518L71.78 97.193 46.731 42.759H8.675L4.86 49.547 0 58.195zM28.073 55.99a7.868 7.868 0 1 1-.001 15.737 7.868 7.868 0 0 1 .001-15.737z"   ></path><path d="M100.874 176.015c0-14.788-12.033-26.823-26.821-26.823-14.792 0-26.824 12.034-26.824 26.823 0 14.792 12.033 26.826 26.824 26.826 14.789 0 26.821-12.035 26.821-26.826zm-26.821 14.903c-8.219 0-14.903-6.682-14.903-14.903 0-8.217 6.684-14.903 14.903-14.903 8.216 0 14.899 6.686 14.899 14.903.001 8.22-6.683 14.903-14.899 14.903z"   ></path><path d="M74.052 181.105a5.09 5.09 0 1 0 0-10.181 5.09 5.09 0 0 0 0 10.181zM179.23 149.192c-14.792 0-26.824 12.034-26.824 26.823 0 14.792 12.033 26.826 26.824 26.826 14.788 0 26.821-12.035 26.821-26.826 0-14.788-12.033-26.823-26.821-26.823zm0 41.726c-8.219 0-14.903-6.682-14.903-14.903 0-8.217 6.684-14.903 14.903-14.903 8.215 0 14.899 6.686 14.899 14.903.001 8.22-6.683 14.903-14.899 14.903z"   ></path><path d="M179.228 181.105a5.09 5.09 0 1 0 0-10.181 5.09 5.09 0 0 0 0 10.181z"   ></path></g></svg>