<svg xmlns="http://www.w3.org/2000/svg" width="24" height="24" viewBox="0 0 512 512"><g><path d="M498.286 274.286c-12.624 0-22.857 10.234-22.857 22.857 0 12.624 10.234 22.857 22.857 22.857H512v-45.714h-13.714zM219.429 146.286l-88.32 117.76 88.32 40.137zM484.571 420.571h-73.143C396.299 420.616 384.044 432.87 384 448v9.143h128V448c-.044-15.13-12.298-27.384-27.429-27.429zM96.091 393.309c33.457 2.428 59.356 30.288 59.338 63.833h64c.039-35.33 28.67-63.961 64-64V353.28l-58.331-26.514h-.091L5.577 227.017 0 224.457v200.869l28.16 22.583c4.825-33.197 34.474-57.027 67.931-54.6zM19.334 261.05a9.118 9.118 0 0 1 12.209-4.044L86.4 284.434a9.077 9.077 0 0 1 4.023 12.252 8.972 8.972 0 0 1-8.137 5.029 8.55 8.55 0 0 1-4.114-1.006L23.314 273.28a9.118 9.118 0 0 1-3.98-12.23zm0 36.571a9.118 9.118 0 0 1 12.209-4.044L86.4 321.006a9.077 9.077 0 0 1 4.023 12.251 8.972 8.972 0 0 1-8.137 5.029 8.55 8.55 0 0 1-4.114-1.006l-54.857-27.429a9.118 9.118 0 0 1-3.981-12.23zm3.98 48.802a9.117 9.117 0 0 1-3.98-12.23 9.118 9.118 0 0 1 12.209-4.044L86.4 357.577a9.077 9.077 0 0 1 4.023 12.252 8.972 8.972 0 0 1-8.137 5.029 8.55 8.55 0 0 1-4.114-1.006l-54.858-27.429zM237.714 91.429h45.714v18.286h-45.714zM384 22.857a13.695 13.695 0 0 0-13.714-13.714 13.695 13.695 0 0 0-13.714 13.714v22.857H384V22.857z" ></path><path d="M91.429 448a9.143 9.143 0 1 0 9.143 9.143A9.171 9.171 0 0 0 91.429 448zM219.429 115.84V73.143A9.17 9.17 0 0 0 210.286 64H45.714c-15.13.044-27.384 12.299-27.429 27.429v121.326l95.817 43.52L219.429 115.84zM283.429 307.749l-45.715-19.566v24.228l45.715 20.846zM283.429 128h-45.715v140.251l45.715 19.566zM283.429 411.429c-25.247 0-45.714 20.467-45.714 45.714s20.467 45.714 45.714 45.714 45.714-20.467 45.714-45.714c-.009-25.244-20.471-45.705-45.714-45.714zm0 73.142c-15.148 0-27.429-12.28-27.429-27.429s12.28-27.429 27.429-27.429 27.429 12.28 27.429 27.429c-.045 15.131-12.299 27.385-27.429 27.429zM493.714 502.857h9.143a9.17 9.17 0 0 0 9.143-9.143v-18.286h-18.286v27.429zM365.714 475.429h-20.937a64.607 64.607 0 0 1-16.64 27.429h39.223a27.473 27.473 0 0 1-1.646-9.143v-18.286zM420.571 475.429h18.286v27.429h-18.286zM384 493.714a9.17 9.17 0 0 0 9.143 9.143h9.143v-27.429H384v18.286zM347.429 310.857v36.571c.03 10.087 8.199 18.256 18.286 18.286h91.429v-23.04l-39.771-31.817h-69.944z" ></path><path d="M457.143 402.286V384h-91.429a36.561 36.561 0 0 1-36.572-36.572v-36.571c.029-10.087 8.199-18.256 18.286-18.286h69.943a18.514 18.514 0 0 1 11.429 4.023l28.343 22.674v-44.983h-69.394a18.13 18.13 0 0 1-12.891-5.394l-40.32-40.32a18.131 18.131 0 0 1-5.394-12.891V128a36.56 36.56 0 0 1 36.571-36.571h91.429V73.143A9.17 9.17 0 0 0 448.001 64H320c-10.087.029-18.256 8.199-18.286 18.286v313.509c27.087 8.149 45.651 33.063 45.714 61.349h18.286V448c.009-25.243 20.471-45.705 45.714-45.714h45.715zM320 265.143a9.143 9.143 0 0 1 9.143-9.143h9.143a9.055 9.055 0 0 1 9.143 9.143 9.17 9.17 0 0 1-9.143 9.143h-9.143a9.143 9.143 0 0 1-9.143-9.143zM91.429 411.429c-25.247 0-45.714 20.467-45.714 45.714s20.467 45.714 45.714 45.714 45.714-20.467 45.714-45.714c-.009-25.244-20.471-45.705-45.714-45.714zm0 73.142C76.28 484.571 64 472.291 64 457.143s12.28-27.429 27.429-27.429 27.429 12.28 27.429 27.429c-.045 15.13-12.299 27.384-27.429 27.428zM152.777 475.429a64.607 64.607 0 0 1-16.64 27.429H238.72a64.595 64.595 0 0 1-16.64-27.429h-69.303z" ></path><path d="M347.429 128v87.68l40.32 40.32h69.394V109.714h-91.429c-10.086.03-18.256 8.199-18.285 18.286zm73.325 7.314a5.772 5.772 0 0 1 .549-1.646c.2-.583.476-1.136.823-1.646l1.097-1.371c.457-.366.914-.731 1.463-1.097a5.091 5.091 0 0 1 1.554-.823 5.834 5.834 0 0 1 1.646-.549 9.486 9.486 0 0 1 8.32 2.469c.393.435.76.893 1.097 1.371.346.51.623 1.063.823 1.646.264.518.449 1.073.549 1.646.106.604.167 1.215.183 1.829a9.614 9.614 0 0 1-2.651 6.491 9.145 9.145 0 0 1-15.635-6.491c.015-.613.076-1.225.182-1.829zM374.857 128h18.286a9.143 9.143 0 0 1 0 18.286h-18.286a9.143 9.143 0 0 1 0-18.286zM457.143 475.429h18.286v27.429h-18.286zM283.429 448a9.143 9.143 0 1 0 9.143 9.143 9.171 9.171 0 0 0-9.143-9.143z" ></path></g></svg>