<?xml version="1.0" encoding="utf-8"?>
<svg xmlns="http://www.w3.org/2000/svg"  viewBox="0 0 512 512"  width="24" height="24"><circle r="256" cx="256" cy="256" fill="#454545" shape="circle" transform="matrix(0.76,0,0,0.76,61.44,61.44)"></circle><g transform="matrix(0.9900000000000001,0,0,0.9900000000000001,2.5599999237064424,2.5599999809271594)"><path fill="#0275d8" d="M415.999 96.062 256 106.364l-148.663 2.832 22.624-79.903C134.306 16.249 163.188 0 176.937 0h184.04a31.936 31.936 0 0 1 30.299 21.843z" data-original="#ff5c50" class=""></path><path fill="#035daa" d="M181.929 0h-30.906a31.936 31.936 0 0 0-30.299 21.843L96.001 96.062l14.906 10.302 16-10.302 24.724-74.219A31.933 31.933 0 0 1 181.929 0z" data-original="#e53e3e" class=""></path><path fill="#035daa" d="m143.89 54.327 5.713-17.15a7.211 7.211 0 0 1 6.842-4.932h199.11a7.212 7.212 0 0 1 6.842 4.932l5.713 17.15c1.555 4.669-1.92 9.49-6.842 9.49H150.732c-4.922 0-8.397-4.821-6.842-9.49z" data-original="#d62d2d" class=""></path><path fill="#0275d8" d="m399.999 127.998-14.721 353.395C384.567 498.494 370.484 512 353.363 512H231.729l-6.55-8.914-8.903 8.914h-57.37l-23.453-117.48 1.624-57.783-7.117-214.793 125.833-14.549z" data-original="#ff5c50" class=""></path><path fill="#035daa" d="m112.001 127.999 9.014 216.328 4.215 8.714-3.576 6.677 6.347 152.28h30.905l-16-383.999L128 107.396z" data-original="#e53e3e" class=""></path><circle cx="128.001" cy="463.997" r="47.999" fill="#465679" data-original="#465679"></circle><path fill="#39395f" d="M128.001 479.751c-8.687 0-15.754-7.067-15.754-15.754s7.067-15.755 15.754-15.755 15.754 7.067 15.754 15.755c0 8.687-7.068 15.754-15.754 15.754z" data-original="#39395f"></path><path fill="#035daa" d="M231.729 454.155V512h-15.453v-57.845c0-52.076-42.361-94.427-94.427-94.427-.062 0-.134 0-.196-.01l-.639-15.391c.278-.041.556-.051.834-.051 60.587 0 109.881 49.284 109.881 109.879z" data-original="#d62d2d" class=""></path><g fill="#edf6ff"><path d="M233.28 311.781h-47.805c-1.597 0-2.424-.988-2.775-1.576-.351-.589-.827-1.786-.068-3.19l21.913-40.552 3.532 9.764a7.729 7.729 0 0 0 7.266 5.1 7.726 7.726 0 0 0 7.265-10.357l-9.398-25.978c-1.329-3.821-5.449-5.789-9.171-4.859l-28.092 7.147a7.727 7.727 0 0 0 3.81 14.976l11.011-2.801-21.731 40.214c-3.159 5.846-3.013 12.743.39 18.451 3.403 5.707 9.402 9.115 16.047 9.115h47.805a7.726 7.726 0 0 0 7.726-7.726 7.725 7.725 0 0 0-7.725-7.728zM342.706 298.227l-25.279-43.785a7.726 7.726 0 0 0-13.382 7.726l25.279 43.785c.798 1.383.357 2.594.023 3.192-.328.588-1.107 1.574-2.65 1.65h-46.404l6.938-8.236a7.726 7.726 0 1 0-11.818-9.955l-17.767 21.091c-2.581 3.018-2.416 7.632.393 10.456l20.188 20.706a7.704 7.704 0 0 0 5.533 2.333 7.727 7.727 0 0 0 5.531-13.12l-7.626-7.822h45.169c.072 0 .145-.001.217-.003 6.642-.187 12.543-3.762 15.784-9.562 3.242-5.801 3.194-12.701-.129-18.456zM280.123 221.051l-10.222-1.823a7.728 7.728 0 0 0-2.713 15.214l27.197 4.85c3.929.695 7.737-1.719 8.808-5.564l7.842-27.85a7.727 7.727 0 0 0-5.343-9.532 7.724 7.724 0 0 0-9.531 5.343l-3.079 10.936-23.961-38.927c-3.483-5.659-9.567-9.01-16.175-8.887-6.644.094-12.595 3.586-15.917 9.34l-24.258 42.016a7.727 7.727 0 0 0 13.382 7.726l24.259-42.016c.798-1.383 2.066-1.606 2.752-1.616.67.005 1.96.178 2.797 1.537z" fill="#edf6ff" data-original="#edf6ff" class=""></path></g><path fill="#035daa" d="M424.788 128.062H110.906l-14.197-7.866-1.256-16.489 15.453-7.645h313.882a7.211 7.211 0 0 1 7.211 7.211v17.577a7.211 7.211 0 0 1-7.211 7.212z" data-original="#e53e3e" class=""></path><path fill="#035daa" d="M80.001 103.273v17.577a7.211 7.211 0 0 0 7.211 7.211h23.694v-32H87.212a7.213 7.213 0 0 0-7.211 7.212z" data-original="#d62d2d" class=""></path></g></svg>