<svg xmlns="http://www.w3.org/2000/svg" viewBox="0 0 512 512" width="24" height="24"><g transform="matrix(1,0,0,1,0,0)"><g><path d="m415.999 96.062-159.999 10.302-148.663 2.832 22.624-79.903c4.345-13.044 33.227-29.293 46.976-29.293h184.04c13.748 0 25.954 8.799 30.299 21.843z" fill="#4caf50" data-original="#ff5c50" class=""></path><path d="m181.929 0h-30.906c-13.748 0-25.954 8.799-30.299 21.843l-24.723 74.219 14.906 10.302 16-10.302 24.724-74.219c4.344-13.044 16.549-21.843 30.298-21.843z" fill="#459b48" data-original="#e53e3e" class=""></path><path d="m143.89 54.327 5.713-17.15c.981-2.945 3.737-4.932 6.842-4.932h199.11c3.104 0 5.861 1.987 6.842 4.932l5.713 17.15c1.555 4.669-1.92 9.49-6.842 9.49h-210.536c-4.922 0-8.397-4.821-6.842-9.49z" fill="#3e8f41" data-original="#d62d2d" class=""></path><path d="m399.999 127.998-14.721 353.395c-.711 17.101-14.794 30.607-31.915 30.607h-121.634l-6.55-8.914-8.903 8.914h-57.37l-23.453-117.48 1.624-57.783-7.117-214.793 125.833-14.549z" fill="#4caf50" data-original="#ff5c50" class=""></path><path d="m112.001 127.999 9.014 216.328 4.215 8.714-3.576 6.677 6.347 152.28h30.905l-16-383.999-14.906-20.603z" fill="#459b48" data-original="#e53e3e" class=""></path><circle cx="128.001" cy="463.997" fill="#465679" r="47.999" data-original="#465679" class=""></circle><path d="m128.001 479.751c-8.687 0-15.754-7.067-15.754-15.754s7.067-15.755 15.754-15.755 15.754 7.067 15.754 15.755c0 8.687-7.068 15.754-15.754 15.754z" fill="#39395f" data-original="#39395f"></path><path d="m231.729 454.155v57.845h-15.453v-57.845c0-52.076-42.361-94.427-94.427-94.427-.062 0-.134 0-.196-.01l-.639-15.391c.278-.041.556-.051.834-.051 60.587 0 109.881 49.284 109.881 109.879z" fill="#3e8f41" data-original="#d62d2d" class=""></path><g fill="#edf6ff"><path d="m233.28 311.781h-47.805c-1.597 0-2.424-.988-2.775-1.576-.351-.589-.827-1.786-.068-3.19l21.913-40.552 3.532 9.764c1.138 3.145 4.104 5.1 7.266 5.1.872 0 1.76-.149 2.628-.463 4.013-1.452 6.089-5.881 4.637-9.894l-9.398-25.978c-1.329-3.821-5.449-5.789-9.171-4.859l-28.092 7.147c-4.135 1.052-6.635 5.258-5.583 9.393s5.26 6.637 9.393 5.583l11.011-2.801-21.731 40.214c-3.159 5.846-3.013 12.743.39 18.451 3.403 5.707 9.402 9.115 16.047 9.115h47.805c4.267 0 7.726-3.459 7.726-7.726.001-4.269-3.458-7.728-7.725-7.728z" fill="#edf6ff" data-original="#edf6ff" class=""></path><path d="m342.706 298.227-25.279-43.785c-2.134-3.696-6.86-4.961-10.554-2.828-3.696 2.134-4.962 6.859-2.828 10.554l25.279 43.785c.798 1.383.357 2.594.023 3.192-.328.588-1.107 1.574-2.65 1.65h-46.404l6.938-8.236c2.75-3.264 2.333-8.138-.931-10.887-3.265-2.749-8.138-2.332-10.887.932l-17.767 21.091c-2.581 3.018-2.416 7.632.393 10.456l20.188 20.706c1.515 1.553 3.522 2.333 5.533 2.333 1.945 0 3.891-.729 5.393-2.194 3.055-2.979 3.117-7.87.138-10.926l-7.626-7.822h45.169c.072 0 .145-.001.217-.003 6.642-.187 12.543-3.762 15.784-9.562 3.242-5.801 3.194-12.701-.129-18.456z" fill="#edf6ff" data-original="#edf6ff" class=""></path><path d="m280.123 221.051-10.222-1.823c-4.201-.745-8.214 2.049-8.963 6.251-.749 4.2 2.049 8.213 6.25 8.963l27.197 4.85c3.929.695 7.737-1.719 8.808-5.564l7.842-27.85c1.156-4.108-1.235-8.375-5.343-9.532-4.109-1.159-8.375 1.236-9.531 5.343l-3.079 10.936-23.961-38.927c-3.483-5.659-9.567-9.01-16.175-8.887-6.644.094-12.595 3.586-15.917 9.34l-24.258 42.016c-2.134 3.695-.868 8.421 2.828 10.554 3.694 2.132 8.421.868 10.554-2.828l24.259-42.016c.798-1.383 2.066-1.606 2.752-1.616.67.005 1.96.178 2.797 1.537z" fill="#edf6ff" data-original="#edf6ff" class=""></path></g><path d="m424.788 128.062h-313.882l-14.197-7.866-1.256-16.489 15.453-7.645h313.882c3.983 0 7.211 3.229 7.211 7.211v17.577c0 3.983-3.228 7.212-7.211 7.212z" fill="#459b48" data-original="#e53e3e" class=""></path><path d="m80.001 103.273v17.577c0 3.983 3.229 7.211 7.211 7.211h23.694v-32h-23.694c-3.983.001-7.211 3.23-7.211 7.212z" fill="#3e8f41" data-original="#d62d2d" class=""></path></g></g></svg>