<svg xmlns="http://www.w3.org/2000/svg" width="24" height="24" viewBox="0 0 512 512"><g><path d="M451.1 304.9c-21.7 0-39.3 17.5-39.3 39.2s17.6 39.2 39.3 39.2 39.2-17.6 39.2-39.2c0-21.7-17.6-39.2-39.2-39.2zm0 56.7c-9.7 0-17.5-7.8-17.5-17.5s7.9-17.5 17.5-17.5 17.5 7.8 17.5 17.5-7.9 17.5-17.5 17.5zM98.2 304.9c-21.7 0-39.3 17.5-39.3 39.2s17.6 39.2 39.3 39.2 39.2-17.6 39.2-39.2c0-21.7-17.6-39.2-39.2-39.2zm0 56.7c-9.7 0-17.5-7.8-17.5-17.5s7.9-17.5 17.5-17.5 17.5 7.8 17.5 17.5-7.9 17.5-17.5 17.5zM187.2 304.9c-21.7 0-39.3 17.5-39.3 39.2s17.5 39.3 39.3 39.3c21.7 0 39.3-17.6 39.3-39.3-.1-21.6-17.6-39.2-39.3-39.2zm0 56.7c-9.6 0-17.5-7.8-17.5-17.5 0-9.6 7.8-17.4 17.5-17.4s17.5 7.8 17.5 17.4c0 9.7-7.9 17.5-17.5 17.5z"></path><path d="M66.3 295.2v10.3c20.3-16.9 52.1-15.5 70.6 6.9h11.7c20-24.6 57.5-24.2 77.4 0h119.6v-17.2c25.6-.4 46.2-21.3 46.2-47v-52.5c0-25.9-21-47-47-47h-20.1v-10.5h.7c2.6 0 4.6-2.1 4.6-4.7s-2.1-4.6-4.6-4.6h-41.1c-2.6 0-4.7 2.1-4.7 4.6s2.1 4.7 4.7 4.7h.7v10.5H107v-10.5h.7c2.6 0 4.6-2.1 4.6-4.7 0-8.4-12.5-3.1-45.7-4.6-6.2 0-6.1 9.3 0 9.3h.7v10.5H47c-25.9 0-47 21.1-47 47v52.5c0 26 21.1 47 47 47zM22.1 333.7c0 5.8 4.7 10.5 10.5 10.5H48c0-7.5 1.6-14.5 4.6-20.9h-20c-5.8-.1-10.5 4.6-10.5 10.4z"></path><path d="M511.8 290.7c0-5.7-.9-11.4-2.6-16.8-1.8-5.8 5.6 17.9-22.7-73.6h8.1c3.8 0 6.9-3.1 6.9-6.9s-3-6.9-6.9-6.9h-83.8c-5.4 0-9.9 4.4-9.9 9.9v126.9H232.7c3 6.4 4.6 13.4 4.6 20.9h165.8c0-26.4 21.5-47.8 47.9-47.8s47.9 21.5 47.9 47.8h8.5c8-.1 2.8-10.7 4.4-53.5zM445 253.9V227c0-2.1 1.7-3.8 3.8-3.8h35.4l10.6 34.4c-40.2-1.3-49.8 3.1-49.8-3.7z"></path></g></svg>