<svg xmlns="http://www.w3.org/2000/svg" width="24" height="24" viewBox="0 0 512 512"><g><path d="M271 487.5H75c-33.137 0-60-26.863-60-60s26.863-60 60-60h196c33.137 0 60 26.863 60 60s-26.863 60-60 60z" style="stroke-width:30;stroke-miterlimit:10;" fill="none" stroke="#f44336" stroke-width="30" stroke-miterlimit="10" ></path><path d="M54 371.5v-64h238v60M68 427.5h30M128 427.5h30M188 427.5h30M248 427.5h30" style="stroke-width:30;stroke-miterlimit:10;" fill="none" stroke="#f44336" stroke-width="30" stroke-miterlimit="10" ></path><circle cx="414" cy="54.5" r="30" style="stroke-width:30;stroke-miterlimit:10;" fill="none" stroke="#f44336" stroke-width="30" stroke-miterlimit="10" ></circle><circle cx="442.5" cy="385.5" r="54.5" style="stroke-width:30;stroke-miterlimit:10;" fill="none" stroke="#f44336" stroke-width="30" stroke-miterlimit="10" ></circle><path d="M54 307.5v-188h126l82 101v87" style="stroke-width:30;stroke-miterlimit:10;" fill="none" stroke="#f44336" stroke-width="30" stroke-miterlimit="10" ></path><path d="M261 247.5H141v-131M207 147.5l177-93M262 220.5l138-137M414 84.5 442.5 331" style="stroke-width:30;stroke-miterlimit:10;" fill="none" stroke="#f44336" stroke-width="30" stroke-miterlimit="10" ></path></g></svg>